<svg xmlns="http://www.w3.org/2000/svg" viewBox="0 0 32 32" role="img" aria-labelledby="title">
  <title id="title">WhatsApp</title>
  <path fill="#fff" d="M16.04 3A12.84 12.84 0 0 0 5.2 22.73L3.5 29l6.42-1.68A12.9 12.9 0 1 0 16.04 3Zm0 23.6a10.7 10.7 0 0 1-5.46-1.5l-.39-.23-3.8 1 1.02-3.71-.25-.4a10.73 10.73 0 1 1 8.88 4.84Zm5.88-8.03c-.32-.16-1.9-.94-2.2-1.05-.29-.11-.5-.16-.71.16-.21.32-.82 1.05-1 1.27-.19.21-.37.24-.7.08-.31-.16-1.34-.49-2.55-1.57a9.58 9.58 0 0 1-1.76-2.19c-.18-.32-.02-.5.14-.65.14-.14.32-.37.48-.55.16-.19.21-.32.32-.53.1-.21.05-.4-.03-.56-.08-.16-.71-1.72-.98-2.35-.26-.62-.52-.54-.71-.55h-.61c-.21 0-.56.08-.85.4-.29.32-1.11 1.08-1.11 2.64s1.14 3.07 1.3 3.28c.16.21 2.24 3.42 5.43 4.8.76.33 1.35.52 1.82.67.76.24 1.45.21 2 .13.61-.09 1.9-.77 2.16-1.52.27-.74.27-1.38.19-1.51-.08-.14-.29-.22-.61-.38Z"/>
</svg>
